<svg width="763" height="630" viewBox="0 0 763 630" fill="none" xmlns="http://www.w3.org/2000/svg">
<path d="M749.514 545.026C736.008 531.087 725.68 514.404 719.325 496.059C719.108 496.492 718.819 496.926 718.603 497.359C720.264 496.998 721.853 496.709 723.514 496.348C724.453 496.131 724.597 494.831 723.803 494.398C717.591 491.076 716.869 480.387 715.497 474.248C713.691 466.231 712.03 458.215 710.586 450.198C707.552 433.731 705.241 417.12 703.58 400.437C703.002 400.726 702.497 401.087 701.919 401.376C713.98 408.526 725.464 416.542 736.225 425.57C745.903 433.731 755.58 442.47 762.441 453.159C769.808 464.498 773.347 478.22 775.514 491.365C777.969 505.881 777.969 520.687 774.503 535.059C774.141 536.431 776.236 537.009 776.597 535.637C782.014 513.754 779.269 490.426 772.336 469.192C765.619 448.898 750.453 434.237 734.203 421.092C724.38 413.148 713.908 405.926 703.075 399.498C702.425 399.137 701.341 399.57 701.414 400.437C703.147 418.276 705.675 435.97 708.997 453.52C710.658 462.259 712.464 470.998 714.558 479.592C715.93 485.442 716.869 493.098 722.719 496.276C722.791 495.626 722.864 494.976 723.008 494.326C721.347 494.687 719.758 494.976 718.097 495.337C717.519 495.481 717.158 496.131 717.375 496.637C723.875 515.342 734.347 532.315 748.141 546.542C749.008 547.554 750.525 546.037 749.514 545.026Z" fill="#E8E8E8"/>
<path d="M703.797 402.242C729.941 440.087 747.997 483.131 756.664 528.27C756.952 529.642 759.047 529.065 758.758 527.692C750.019 482.337 731.891 439.076 705.602 401.087C704.88 400.003 703.002 401.087 703.797 402.242Z" fill="#E8E8E8"/>
<path d="M712.463 464.497C723.369 466.881 734.852 469.553 742.436 478.436C743.302 479.52 744.891 477.931 743.952 476.92C736.152 467.747 724.308 464.859 713.041 462.403C711.669 462.114 711.091 464.209 712.463 464.497Z" fill="#E8E8E8"/>
<path d="M741.208 464.642C740.413 454.531 742.002 444.492 746.047 435.175C746.625 433.875 744.747 432.792 744.169 434.092C739.98 443.77 738.174 454.097 739.041 464.642C739.186 466.014 741.352 466.014 741.208 464.642Z" fill="#E8E8E8"/>
<path d="M758.614 444.781C763.814 412.426 785.986 387.292 807.22 363.82C806.642 363.459 805.992 363.098 805.414 362.737C800.431 380.576 812.131 397.114 816.392 413.87C818.703 423.115 819.786 432.648 820.003 442.181C820.147 446.876 820.075 451.642 819.931 456.337C819.859 458.648 819.859 461.031 819.353 463.27C818.631 466.376 815.164 471.215 811.481 467.965C811.047 468.542 810.614 469.12 810.181 469.698C816.536 473.02 814.225 482.553 813.214 488.115C811.914 495.626 809.747 502.776 804.909 508.842C797.903 517.509 787.864 523.937 784.542 535.059C784.109 536.431 786.203 536.937 786.636 535.637C790.753 522.059 805.27 515.559 811.264 502.992C814.37 496.492 815.742 488.837 816.392 481.759C816.897 476.631 816.392 470.492 811.264 467.892C810.253 467.387 808.953 468.759 809.964 469.626C812.203 471.648 815.309 471.648 817.836 469.987C820.653 468.109 821.52 464.642 821.809 461.392C822.964 450.487 822.459 439.003 821.159 428.17C819.859 417.337 816.97 407.153 812.925 397.114C808.664 386.426 804.259 375.087 807.509 363.459C807.797 362.448 806.425 361.581 805.703 362.376C784.253 386.137 761.792 411.631 756.52 444.276C756.303 445.576 758.397 446.153 758.614 444.781Z" fill="#E8E8E8"/>
<path d="M596.547 483.564C614.241 487.392 631.502 478.87 648.547 475.475C667.325 471.792 686.68 471.792 705.53 475.186C706.902 475.403 707.48 473.381 706.108 473.092C688.63 469.914 670.791 469.697 653.313 472.442C644.358 473.886 635.691 476.342 627.025 478.797C617.275 481.47 607.236 483.636 597.197 481.47C595.752 481.181 595.174 483.203 596.547 483.564Z" fill="#E8E8E8"/>
<path d="M1.36241 416.398C26.9291 410.476 52.4958 403.615 78.4236 399.859C104.279 396.176 130.496 395.742 156.568 397.981C206.69 402.315 255.368 415.459 304.479 425.642C331.563 431.276 358.935 435.898 386.596 437.776C387.968 437.848 387.968 435.681 386.596 435.609C335.896 432.142 286.641 419.215 237.096 408.67C187.84 398.27 137.718 390.759 87.307 396.537C58.0569 399.931 29.4569 407.659 0.784627 414.303C-0.587597 414.592 -0.00981801 416.687 1.36241 416.398Z" fill="#E8E8E8"/>
<path d="M206.474 402.241C248.869 398.558 290.397 388.591 331.491 377.902C373.525 366.925 415.558 355.802 457.591 344.68C499.553 333.63 541.442 322.291 583.547 311.53C604.492 306.186 625.653 301.347 647.175 299.325C667.903 297.375 688.847 297.663 709.575 299.613C757.964 304.091 805.053 317.019 851.781 329.875C853.153 330.236 853.731 328.141 852.359 327.78C811.264 316.441 769.953 305.102 727.559 299.469C706.47 296.652 685.092 295.208 663.786 296.075C642.842 296.869 622.186 300.191 601.747 304.813C580.947 309.58 560.364 315.286 539.708 320.775C518.619 326.336 497.53 331.897 476.442 337.458C433.83 348.652 391.147 359.919 348.536 371.114C301.808 383.391 254.791 395.814 206.474 400.002C205.102 400.219 205.102 402.386 206.474 402.241Z" fill="#E8E8E8"/>
<path d="M90.1238 532.098C107.746 532.748 125.441 533.398 143.063 534.048C160.252 534.698 177.513 535.709 194.702 535.854C211.457 535.998 227.635 532.748 244.102 529.787C261.291 526.681 278.696 524.442 296.102 523.215C315.53 521.77 335.03 521.554 354.458 522.348C355.83 522.42 355.83 520.254 354.458 520.181C320.369 518.737 286.207 520.687 252.552 526.176C235.363 528.992 218.318 533.326 200.913 533.687C183.868 534.12 166.607 532.82 149.563 532.17C129.774 531.448 109.985 530.726 90.1961 530.004C88.7516 529.859 88.7516 532.026 90.1238 532.098Z" fill="#E8E8E8"/>
<path d="M54.6629 626.709C55.7462 627.503 56.8296 628.225 57.9129 629.02C58.924 629.742 60.0796 628.153 59.2129 627.287C55.8907 623.82 52.6407 620.425 49.3185 616.959C47.8018 615.37 45.9962 613.925 44.7684 612.12C42.8907 609.375 44.8407 608.075 45.274 605.837C45.7796 603.525 43.4684 602.225 42.1684 600.781C39.2796 597.675 37.4018 593.775 35.9573 589.803C29.9629 573.409 27.8684 554.92 27.2906 537.586C26.9295 537.948 26.5684 538.309 26.2073 538.67C44.4073 537.009 54.9518 554.198 61.0185 568.714C67.8074 584.82 74.0185 601.648 74.8129 619.342C74.8852 620.714 77.0518 620.714 76.9796 619.342C76.1129 600.42 69.324 582.075 61.6685 564.887C55.3129 550.514 43.8296 534.842 26.1351 536.431C25.5573 536.503 25.0518 536.864 25.0518 537.514C25.4129 546.831 26.2795 556.075 27.7962 565.248C29.3129 574.203 31.0462 583.448 34.3684 591.898C35.5962 595.003 37.1129 597.964 39.1351 600.564C40.5796 602.37 43.0351 603.959 42.1684 606.631C41.8073 607.714 41.0851 608.292 41.1573 609.592C41.3018 612.77 44.7684 615.37 46.7185 617.392C50.3296 621.148 54.0129 624.975 57.624 628.731C58.0574 628.153 58.4907 627.575 58.924 626.998C57.8407 626.203 56.7574 625.481 55.674 624.687C54.5907 624.037 53.5074 625.914 54.6629 626.709Z" fill="#E8E8E8"/>
<path d="M68.0961 577.526C74.3794 561.059 85.4294 546.687 99.8017 536.503C99.2961 536.359 98.7906 536.215 98.285 536.142C102.329 545.387 105.074 555.065 106.518 565.031C106.735 564.598 107.024 564.165 107.241 563.731C105.507 564.237 103.774 564.742 101.968 565.248C101.246 565.465 101.029 566.187 101.318 566.837C103.341 571.676 105.579 577.165 103.341 582.292C101.463 586.553 97.4184 589.731 94.6017 593.27C89.4739 599.626 85.5017 606.704 82.4683 614.215C81.9628 615.515 84.0572 616.092 84.5628 614.792C88.6072 604.609 94.6739 596.52 101.824 588.359C104.424 585.398 106.374 582.148 106.518 578.103C106.663 573.77 104.857 569.653 103.196 565.753C102.979 566.259 102.763 566.837 102.546 567.342C104.279 566.837 106.013 566.331 107.818 565.826C108.396 565.681 108.685 565.103 108.541 564.526C107.024 554.342 104.207 544.52 100.091 535.059C99.8739 534.553 99.0795 534.337 98.5739 534.698C83.6961 545.315 72.3572 559.976 65.8572 577.02C65.5683 578.248 67.5905 578.826 68.0961 577.526Z" fill="#E8E8E8"/>
<path d="M33.7183 549.287C52.135 570.448 64.1239 596.809 67.8072 624.614C68.0239 625.987 70.1906 625.987 69.9739 624.614C66.1461 596.159 54.085 569.364 35.235 547.698C34.2961 546.687 32.7794 548.203 33.7183 549.287Z" fill="#E8E8E8"/>
<path d="M77.9188 600.348C81.3132 588.359 86.0799 576.876 92.2188 565.97C92.8688 564.742 91.0632 563.659 90.341 564.887C84.1299 575.937 79.291 587.637 75.8243 599.77C75.391 601.142 77.4854 601.72 77.9188 600.348Z" fill="#E8E8E8"/>
<path d="M34.4405 509.925C59.7183 505.014 85.5739 503.136 110.996 507.975C122.841 510.214 134.541 512.814 146.53 514.186C159.168 515.631 171.952 516.208 184.663 516.714C186.035 516.786 186.035 514.619 184.663 514.547C171.952 513.969 159.168 513.464 146.53 512.019C133.385 510.503 120.53 507.397 107.457 505.158C83.0462 500.969 57.985 503.208 33.8628 507.903C32.4905 508.119 33.0683 510.214 34.4405 509.925Z" fill="#E8E8E8"/>
<path d="M129.701 595.798C144.146 593.486 158.59 591.103 173.179 590.236C187.985 589.37 202.285 590.598 216.801 593.27C230.09 595.725 242.946 596.881 256.524 596.592C270.607 596.231 284.835 595.581 298.557 599.264C299.929 599.625 300.507 597.531 299.135 597.17C285.846 593.559 272.196 593.992 258.546 594.353C251.324 594.57 244.029 594.642 236.807 594.064C229.368 593.486 222.001 591.97 214.707 590.67C200.696 588.142 186.757 587.203 172.457 588.07C157.94 589.009 143.496 591.32 129.123 593.631C127.751 593.92 128.329 596.014 129.701 595.798Z" fill="#E8E8E8"/>
<path d="M526.708 613.059C553.791 609.159 581.019 606.848 608.392 606.27C635.042 605.692 661.692 606.776 688.342 607.354C689.714 607.354 689.714 605.187 688.342 605.187C661.258 604.609 634.103 603.526 606.947 604.176C579.864 604.826 552.925 607.137 526.13 610.965C524.758 611.181 525.336 613.204 526.708 613.059Z" fill="#E8E8E8"/>
<path d="M646.741 628.587C657.069 624.181 668.191 629.526 678.808 629.02C681.047 628.876 683.358 628.587 685.525 627.864C688.486 626.853 691.23 625.264 694.408 625.12C699.897 624.831 705.025 626.926 710.514 626.059C711.886 625.842 711.308 623.748 709.936 623.964C703.797 624.976 697.803 621.942 691.736 623.314C688.991 623.892 686.536 625.337 683.864 626.131C681.119 626.853 678.303 626.998 675.486 626.926C665.447 626.492 655.408 622.664 645.586 626.853C644.43 627.214 645.514 629.092 646.741 628.587Z" fill="#E8E8E8"/>
<path d="M720.263 135.813C706.829 128.591 698.091 114.58 700.113 99.0521C701.918 84.8243 713.329 72.5465 727.268 69.2243C741.496 65.9021 757.385 72.6187 765.113 84.9688C773.418 98.1854 771.613 115.663 761.43 127.363C749.874 140.652 729.652 142.674 715.063 133.285C713.907 132.491 712.824 134.369 713.979 135.163C727.557 143.974 746.335 143.397 758.902 132.924C771.396 122.524 776.018 104.469 769.807 89.3743C763.885 75.0021 748.718 65.6132 733.191 66.2632C717.879 66.9854 704.013 78.0354 699.391 92.5521C693.613 110.535 703.291 129.024 719.252 137.619C720.407 138.341 721.491 136.463 720.263 135.813Z" fill="#E8E8E8"/>
<path d="M96.9126 293.764C104.279 287.192 114.607 291.669 120.096 298.314C122.913 301.708 124.574 305.536 126.74 309.292C128.113 311.82 130.135 314.347 133.168 314.925C135.552 315.358 137.502 314.492 139.09 312.758C140.102 311.603 140.752 310.086 141.763 308.931C143.929 306.403 146.746 306.692 149.057 308.714C154.113 313.12 154.329 324.025 163.213 323.231C164.585 323.086 164.585 320.92 163.213 321.064C153.968 321.931 155.052 306.403 146.168 304.886C143.568 304.453 141.474 305.608 139.885 307.631C138.874 308.931 138.224 310.736 136.924 311.819C133.168 314.925 129.846 310.592 128.329 307.631C124.646 300.842 121.035 293.764 113.74 290.225C107.746 287.336 100.452 287.625 95.3959 292.175C94.3848 293.114 95.9015 294.703 96.9126 293.764Z" fill="#E8E8E8"/>
<path d="M583.041 196.553C581.597 192.653 579.864 188.03 582.464 184.203C584.847 180.808 588.891 182.542 592.286 181.458C596.764 180.014 599.508 175.608 600.736 171.347C602.18 166.364 600.447 159.864 603.408 155.458C607.019 150.041 614.819 156.686 619.73 153.364C620.886 152.569 619.803 150.691 618.647 151.486C613.664 154.88 606.875 147.947 602.18 153.508C598.425 157.914 600.158 164.63 598.93 169.83C598.064 173.441 596.114 177.269 592.719 179.003C589.758 180.519 586.364 179.003 583.402 180.519C577.047 183.769 579.069 191.858 581.019 197.13C581.38 198.358 583.475 197.853 583.041 196.553Z" fill="#E8E8E8"/>
<path d="M590.841 145.925C589.469 142.314 590.263 138.197 592.935 135.308C596.258 131.697 600.085 133.141 604.202 131.697C606.658 130.83 608.102 128.736 609.041 126.425C609.619 124.98 609.98 123.464 610.485 122.019C610.919 120.864 611.424 119.564 612.291 118.697C613.591 117.469 616.697 116.458 617.491 119.203C617.924 120.503 619.947 119.997 619.586 118.625C618.647 115.591 615.108 114.508 612.363 115.953C607.163 118.625 609.041 126.569 604.202 129.241C601.53 130.686 598.208 129.819 595.391 130.975C593.585 131.769 591.997 133.069 590.769 134.586C588.097 137.98 587.23 142.458 588.747 146.503C589.18 147.803 591.274 147.225 590.841 145.925Z" fill="#E8E8E8"/>
<path d="M651.653 223.058C649.486 219.953 650.136 215.547 652.953 212.947C656.203 209.914 660.897 211.286 663.136 214.753C668.264 222.48 656.925 229.269 651.508 222.842C650.569 221.758 649.053 223.347 649.991 224.358C653.097 228.042 658.875 228.475 662.847 225.875C667.325 222.986 667.686 217.136 664.58 213.019C661.547 208.975 655.914 207.603 651.869 210.925C648.041 214.03 646.886 219.953 649.775 224.069C650.569 225.297 652.447 224.214 651.653 223.058Z" fill="#E8E8E8"/>
<path d="M659.813 235.047C657.791 232.23 655.263 228.836 656.13 225.225C657.43 219.88 663.785 221.252 666.674 224.43C669.058 227.102 669.924 231.291 666.891 233.819C664.58 235.769 661.041 236.13 658.946 233.819C658.008 232.808 656.491 234.325 657.43 235.336C660.319 238.441 665.23 238.152 668.335 235.48C672.019 232.302 671.585 227.03 668.696 223.491C665.808 219.88 659.235 217.28 655.624 221.397C651.58 226.019 654.974 232.013 657.935 236.13C658.73 237.286 660.608 236.202 659.813 235.047Z" fill="#E8E8E8"/>
<path d="M174.119 385.559C182.208 388.014 190.441 389.459 198.819 389.747C200.191 389.82 200.191 387.653 198.819 387.581C190.585 387.292 182.496 385.92 174.696 383.464C173.324 383.031 172.746 385.125 174.119 385.559Z" fill="#E8E8E8"/>
<path d="M715.785 327.781C764.896 327.42 811.118 345.764 857.485 359.342C870.774 363.242 884.207 366.781 897.785 369.453C899.157 369.742 899.735 367.648 898.363 367.359C850.191 357.826 804.763 337.387 756.302 329.081C742.941 326.77 729.363 325.47 715.785 325.614C714.413 325.614 714.413 327.781 715.785 327.781Z" fill="#E8E8E8"/>
<path d="M232.98 14.6249C235.507 20.6916 238.613 34.125 247.713 28.1305C250.746 26.1805 255.224 20.475 258.474 25.0972C260.424 27.8416 260.569 31.4527 264.252 32.6805C265.552 33.1139 266.13 31.0194 264.83 30.5861C261.435 29.4305 261.435 24.2305 258.691 22.1361C256.885 20.7638 254.646 20.8361 252.696 21.8472C249.807 23.2194 247.713 26.325 244.68 27.3361C239.263 29.1416 236.519 17.5138 235.074 14.0472C234.496 12.8194 232.402 13.3249 232.98 14.6249Z" fill="#E8E8E8"/>
<path d="M255.44 15.9247C259.485 12.8191 265.407 14.2636 267.429 18.958C268.657 21.9191 269.596 23.6525 273.062 23.8691C274.723 23.9414 276.529 23.3636 278.19 23.6525C281.657 24.2303 281.657 27.2636 282.235 30.0803C282.812 32.8969 284.112 35.3525 287.146 35.7136C288.518 35.8581 288.518 33.6914 287.146 33.5469C283.173 33.1136 284.835 24.9525 281.729 22.6414C278.407 20.1858 273.423 23.4358 270.823 20.4025C269.596 18.958 269.235 17.008 267.935 15.5636C266.923 14.3358 265.551 13.4691 264.035 12.8914C260.785 11.5914 257.173 12.0247 254.429 14.1191C253.201 14.9136 254.285 16.7914 255.44 15.9247Z" fill="#E8E8E8"/>
<path d="M320.441 84.0308C324.991 84.9697 329.829 82.0808 331.057 77.4585C332.213 73.1252 329.396 69.0085 325.279 67.6363C315.674 64.3863 310.329 77.603 318.129 83.0197C319.285 83.8141 320.368 81.9363 319.213 81.1419C313.724 77.3141 317.118 67.7085 324.124 69.5141C327.157 70.3085 329.685 73.053 329.107 76.303C328.457 79.9863 324.702 82.6585 321.018 81.8641C319.646 81.6474 319.068 83.7419 320.441 84.0308Z" fill="#E8E8E8"/>
<path d="M327.446 87.7137C325.713 86.3415 323.618 84.8248 322.896 82.5859C321.885 79.5526 324.774 75.9415 328.168 76.8081C330.552 77.4581 332.213 80.2026 331.635 82.6581C330.913 85.4026 327.807 86.7748 325.207 86.1248C323.835 85.7637 323.257 87.8582 324.629 88.2193C328.168 89.0859 332.068 87.4248 333.513 83.9582C334.885 80.5637 333.007 76.447 329.685 75.0026C326.363 73.6304 322.535 75.4359 321.091 78.6137C319.068 83.0193 322.752 86.7026 326.002 89.2304C326.941 90.097 328.529 88.5804 327.446 87.7137Z" fill="#E8E8E8"/>
<path d="M183.363 230.353C180.041 227.392 179.391 222.914 182.641 219.592C185.458 216.775 189.646 216.847 192.319 219.808C197.88 226.019 189.863 234.108 183.291 229.847C182.135 229.053 181.052 230.93 182.208 231.725C186.108 234.253 191.452 233.386 194.485 229.919C197.591 226.308 196.652 220.892 193.33 217.714C189.791 214.392 184.519 214.608 181.124 218.003C177.008 222.119 177.658 228.114 181.846 231.869C182.858 232.808 184.374 231.292 183.363 230.353Z" fill="#E8E8E8"/>
<path d="M491.247 26.1802C495.436 17.008 501.286 8.84689 508.508 1.84133C509.519 0.902436 508.002 -0.686455 506.991 0.324658C499.624 7.47467 493.702 15.7802 489.369 25.1691C488.791 26.3247 490.669 27.4802 491.247 26.1802Z" fill="#E8E8E8"/>
<path d="M500.274 24.7358C504.608 19.3913 509.447 14.408 514.647 9.858C515.73 8.91911 514.141 7.40244 513.13 8.34133C507.93 12.8913 503.163 17.8747 498.758 23.2191C497.891 24.3025 499.408 25.8191 500.274 24.7358Z" fill="#E8E8E8"/>
<path d="M505.763 31.2358C507.713 29.5746 509.663 27.9858 511.613 26.3246C512.697 25.458 511.108 23.8691 510.097 24.808C508.147 26.4691 506.197 28.058 504.247 29.7191C503.163 30.5858 504.68 32.1024 505.763 31.2358Z" fill="#E8E8E8"/>
<circle cx="607.958" cy="27.0474" r="10.5445" fill="#5222D0"/>
<circle cx="603.119" cy="47.7025" r="6.28334" fill="#5222D0"/>
<circle cx="270.246" cy="326.408" r="7.72779" fill="#5222D0"/>
<circle cx="282.813" cy="351.036" r="4.26112" fill="#5222D0"/>
<path d="M358.068 238.658C358.718 244.942 360.741 250.503 367.891 250.358C370.346 250.358 372.441 249.636 374.318 251.514C376.052 253.247 375.546 254.98 376.268 257.147C376.63 258.23 377.135 259.242 378.146 259.964C379.446 260.903 384.357 260.903 383.924 263.069C383.635 264.442 385.73 265.019 386.018 263.647C386.524 261.192 384.863 259.747 382.552 259.097C379.23 258.158 378.435 256.858 377.93 253.897C377.713 252.525 377.424 251.153 376.485 249.997C374.607 247.758 371.574 248.047 368.974 248.119C366.157 248.264 363.485 248.047 361.968 245.303C360.813 243.28 360.524 240.825 360.307 238.586C360.091 237.286 357.924 237.286 358.068 238.658Z" fill="#5222D0"/>
<path d="M365.435 265.236C369.191 261.264 373.668 265.308 374.824 269.281C375.33 270.869 375.402 272.386 376.557 273.614C379.157 276.503 383.924 274.914 386.307 277.947C387.174 279.031 388.691 277.514 387.824 276.431C386.235 274.408 383.996 274.119 381.613 273.614C379.374 273.108 378.146 272.314 377.28 270.075C376.702 268.703 376.63 267.258 375.835 265.886C373.38 261.481 367.602 259.747 363.918 263.647C362.907 264.731 364.424 266.247 365.435 265.236Z" fill="#5222D0"/>
<path d="M621.969 257.941C620.597 255.341 623.486 253.391 625.652 254.98C626.302 255.414 627.313 254.836 627.313 254.041C627.097 251.586 629.552 249.78 631.863 250.647C633.163 251.153 633.741 249.058 632.441 248.553C628.83 247.18 624.858 250.214 625.147 254.041C625.725 253.753 626.23 253.391 626.808 253.103C622.691 250.141 617.852 254.691 620.163 259.025C620.741 260.253 622.619 259.169 621.969 257.941Z" fill="#5222D0"/>
<path d="M634.247 256.786C633.741 255.558 637.208 255.341 637.785 255.341C639.591 255.414 641.324 255.702 643.13 255.847C644.502 255.991 644.502 253.825 643.13 253.68C640.313 253.391 637.135 252.597 634.391 253.752C632.585 254.547 631.574 255.991 632.369 257.869C632.874 259.169 634.752 258.014 634.247 256.786Z" fill="#5222D0"/>
<circle cx="257.896" cy="334.931" r="8.52223" fill="#EC615B"/>
<circle cx="338.568" cy="12.5302" r="11.4833" fill="#EC615B"/>
<circle cx="130.424" cy="453.447" r="14.5167" fill="#EC615B"/>
<circle cx="625.941" cy="409.32" r="7.4389" fill="#EC615B"/>
<path d="M543.174 585.976C558.486 582.292 573.869 578.537 589.18 574.853C599.002 575.576 613.591 575.792 630.925 572.903C647.391 570.159 678.952 562.431 678.736 553.909C678.591 548.276 664.508 544.231 641.252 537.514C625.869 533.109 612.941 530.509 604.347 528.992C594.813 533.687 584.558 538.309 573.508 542.714C558.558 548.709 544.33 553.403 531.113 557.087C535.086 566.764 539.13 576.37 543.174 585.976Z" fill="#161616" stroke="#161616" stroke-width="3"/>
<path d="M505.33 571.314C520.641 567.631 536.024 563.876 551.335 560.192C561.158 560.914 575.746 561.131 593.08 558.242C609.546 555.498 641.108 547.77 640.891 539.248C640.747 533.614 626.663 529.57 603.408 522.853C588.024 518.448 575.096 515.848 566.502 514.331C556.969 519.026 546.713 523.648 535.663 528.053C520.713 534.048 506.485 538.742 493.269 542.426C497.241 552.176 501.285 561.781 505.33 571.314Z" fill="#161616" stroke="#161616" stroke-width="3"/>
<path d="M426.318 437.92C412.668 445.286 400.896 453.448 398.874 454.82C391.94 459.659 375.763 470.998 359.729 487.536C336.04 511.948 316.107 532.459 317.407 558.459C318.562 581.859 336.257 598.109 338.207 599.842C369.768 628.009 437.224 617.753 505.329 574.348C502.874 561.42 500.49 548.564 498.035 535.637C504.102 534.409 517.824 530.725 530.318 518.953C545.846 504.292 549.313 486.525 550.179 480.748C550.107 474.175 549.313 466.448 547.074 458.07C540.213 432.359 523.89 416.109 515.224 408.67C492.763 412.57 458.963 420.442 426.318 437.92Z" fill="white" stroke="#161616" stroke-width="3"/>
<path d="M477.957 451.425C464.091 458.936 451.741 467.459 450.513 468.325C432.602 480.82 419.963 492.809 411.369 501.042C380.674 530.509 358.863 550.514 361.752 574.781C364.568 598.109 387.896 612.192 389.846 613.276C403.496 621.22 417.363 621.437 428.485 620.859C478.463 618.259 534.508 596.953 556.969 587.781C554.513 574.853 552.13 561.998 549.674 549.07C555.741 547.048 572.93 540.259 584.269 522.348C586.002 519.603 592.069 509.564 593.73 495.192C594.235 491.075 594.813 482.409 590.263 464.425C587.447 453.303 582.391 437.775 572.93 420.153C552.996 423.692 514.069 431.925 477.957 451.425Z" fill="white" stroke="#161616" stroke-width="3"/>
<path d="M471.385 562.864C498.179 563.514 524.901 559.47 550.251 550.875C551.551 550.442 550.974 548.348 549.674 548.781C524.468 557.375 498.035 561.42 471.385 560.698C470.012 560.625 470.012 562.792 471.385 562.864Z" fill="#161616"/>
<path d="M464.379 555.281C466.185 558.387 468.929 560.843 472.251 562.215C473.551 562.72 474.635 560.915 473.335 560.337C470.301 559.037 467.918 557.015 466.257 554.198C465.535 552.97 463.657 554.054 464.379 555.281Z" fill="#161616"/>
<path opacity="0.12" d="M509.88 501.765C484.746 515.848 471.746 513.537 446.757 533.037C440.257 538.165 402.268 567.848 407.107 597.965C407.54 600.493 409.779 614.648 420.324 620.209C424.802 622.593 429.207 622.448 435.346 622.015C455.929 620.426 471.818 616.526 473.768 616.02C499.046 609.737 494.785 612.337 512.191 607.643C523.674 604.537 539.202 599.626 557.257 592.043C554.874 579.404 552.418 566.837 550.035 554.198C555.307 551.743 562.53 547.626 569.896 540.981C575.241 536.143 590.48 522.42 593.946 500.754C595.824 489.126 593.513 480.242 589.757 465.87C585.93 451.209 580.585 439.798 576.541 432.215C554.007 471.72 528.73 491.292 509.88 501.765Z" fill="#3D3D3D"/>
<path opacity="0.11" d="M482.868 439.436C481.857 437.703 450.079 452.148 413.751 478.509C368.829 511.081 343.912 530.364 342.829 557.809C341.601 589.803 385.44 616.526 387.318 614.864C388.329 613.926 361.896 595.653 361.462 569.22C361.173 551.959 372.151 538.309 391.507 518.737C440.979 468.686 484.096 441.531 482.868 439.436Z" fill="#3D3D3D"/>
<path opacity="0.12" d="M584.991 455.109C581.669 468.254 574.808 487.681 559.785 506.82C527.791 547.481 482.363 556.87 469.074 559.109C471.313 561.276 473.48 563.731 475.719 566.331C487.708 580.776 493.63 596.232 496.735 608.365C516.38 601.576 536.024 594.715 555.597 587.926C552.563 575.937 549.602 563.876 546.569 551.887C552.78 549.359 562.891 544.231 572.424 534.481C576.397 530.365 586.002 520.326 590.48 504.437C596.98 480.893 587.88 460.815 584.991 455.109Z" fill="#3D3D3D"/>
<path d="M428.846 245.519C434.913 246.386 437.513 264.514 438.38 270.508C441.919 294.847 434.408 305.752 433.252 335.58C432.313 359.269 436.646 360.353 434.696 371.908C431.808 388.808 418.446 410.475 370.996 430.119C367.457 433.947 361.174 439.942 352.074 443.769C332.935 451.858 307.802 447.669 304.407 436.042C303.252 432.142 304.335 426.725 307.007 424.197C311.341 420.008 317.985 426.003 328.963 422.03C329.541 421.814 334.452 420.008 334.307 418.708C334.235 417.914 332.357 417.625 330.119 417.336C319.935 415.892 316.902 416.18 316.685 415.314C316.324 413.869 324.124 408.886 334.235 405.997C342.035 403.758 352.58 401.808 365.58 402.458C376.919 389.675 388.33 376.891 399.669 364.108C398.585 347.641 398.802 324.169 405.013 297.519C409.563 278.164 420.324 244.291 428.846 245.519Z" fill="white" stroke="#161616" stroke-width="3"/>
<path opacity="0.12" d="M429.135 245.158C420.252 245.302 412.235 280.619 410.574 305.68C408.479 337.386 416.785 347.28 410.574 366.708C406.457 379.564 396.057 396.103 368.107 411.125C346.079 429.542 331.418 431.492 321.74 429.18C315.818 427.808 308.451 423.98 305.129 427.23C302.313 429.975 303.613 436.764 306.574 441.386C313.651 452.147 334.957 449.547 347.09 445.286C358.357 441.314 365.796 434.38 370.057 429.686C379.952 427.014 403.063 419.286 422.274 397.475C440.979 376.241 445.385 353.636 447.624 341.358C456.218 294.63 439.968 244.941 429.135 245.158Z" fill="#3D3D3D"/>
<path d="M538.697 203.63C564.408 209.047 583.908 230.786 592.358 250.792C601.675 272.747 596.258 289.936 591.058 326.264C587.519 351.181 583.691 387.075 583.691 431.925C575.891 437.847 538.986 464.859 488.719 457.997C456.797 453.664 434.986 437.847 425.38 429.831C426.969 418.275 428.558 400.364 426.68 378.697C423.936 348.219 416.569 336.303 415.197 312.181C414.33 296.942 415.63 274.481 427.33 246.314C433.902 241.836 443.219 235.914 454.847 229.703C490.958 210.419 513.563 198.358 538.697 203.63Z" fill="#B9A2FF"/>
<path opacity="0.14" d="M513.708 237.358C520.352 255.125 529.741 288.058 524.758 328.792C516.452 396.464 474.058 438.281 460.913 450.27C471.458 454.459 493.269 461.392 521.074 458.214C552.491 454.603 574.013 440.014 583.041 433.081C582.247 403.036 584.052 378.047 586.074 359.486C592.285 303.586 603.48 283.436 591.563 252.742C588.747 245.447 579.285 221.036 555.38 209.769C549.097 206.808 543.391 205.508 539.419 204.858C537.974 209.986 534.652 219.158 526.563 227.536C522.085 232.303 517.391 235.336 513.708 237.358Z" fill="#3D3D3D"/>
<path opacity="0.21" d="M594.091 263.142C575.097 314.708 556.03 366.203 537.036 417.77C520.497 431.275 503.886 444.781 487.347 458.286C499.697 459.37 519.341 459.442 541.947 452.797C560.725 447.236 574.952 439.003 584.269 432.575C584.052 424.92 583.908 413.653 584.269 400.075C585.28 365.986 585.713 348.942 590.408 328.286C594.741 309.219 600.591 294.703 596.547 273.036C595.752 268.703 594.813 265.308 594.091 263.142Z" fill="#3D3D3D"/>
<path d="M288.085 412.281C296.679 433.081 305.346 453.881 313.941 474.609C348.896 462.476 383.924 450.27 418.88 438.137C410.502 418.131 402.124 398.053 393.818 378.048C358.574 389.459 323.329 400.87 288.085 412.281Z" fill="white" stroke="#161616" stroke-width="3"/>
<path d="M276.818 343.526C288.518 352.048 302.53 363.964 316.324 379.998C327.518 392.998 335.896 405.637 342.18 416.47C355.902 395.164 369.552 373.859 383.274 352.626C367.313 334.859 351.352 317.164 335.391 299.398C315.818 314.131 296.318 328.792 276.818 343.526Z" fill="white" stroke="#161616" stroke-width="3"/>
<path d="M213.551 244.437C213.551 263.937 213.551 283.437 213.551 303.009C228.501 295.643 243.451 288.276 258.401 280.981C268.295 276.143 278.19 271.304 288.084 266.537C285.268 252.309 282.523 238.154 279.706 223.926C257.679 230.715 235.651 237.576 213.551 244.437Z" fill="white" stroke="#161616" stroke-width="3"/>
<path d="M170.001 119.925C177.368 137.403 184.734 154.881 192.029 172.359C218.101 157.409 244.246 142.459 270.318 127.509C259.412 106.709 248.507 85.9085 237.601 65.1807C230.74 73.1251 222.434 81.7196 212.54 90.2418C197.445 103.386 182.64 112.92 170.001 119.925Z" fill="white" stroke="#161616" stroke-width="3"/>
<path d="M62.0291 142.747C59.718 156.181 57.4791 169.614 55.168 183.047C81.7458 176.981 108.396 170.914 134.974 164.775C134.468 150.042 133.963 135.381 133.457 120.647C109.696 128.014 85.8625 135.381 62.0291 142.747Z" fill="white" stroke="#161616" stroke-width="3"/>
<path d="M288.879 414.087C313.868 417.77 338.641 422.392 363.196 427.953C364.568 428.242 365.146 426.148 363.774 425.859C339.146 420.298 314.374 415.603 289.457 411.992C288.085 411.848 287.507 413.942 288.879 414.087Z" fill="#161616"/>
<path d="M392.374 379.059C384.357 395.742 374.607 411.559 363.269 426.148C362.402 427.231 363.919 428.748 364.785 427.665C376.269 412.931 386.163 396.97 394.252 380.142C394.83 378.914 392.952 377.831 392.374 379.059Z" fill="#161616"/>
<path d="M294.729 347.859C306.862 335.003 320.368 323.52 335.101 313.698C336.257 312.903 335.174 311.025 334.018 311.82C319.14 321.787 305.49 333.342 293.212 346.342C292.201 347.281 293.79 348.87 294.729 347.859Z" fill="#161616"/>
<path d="M305.202 354.359C314.302 344.32 324.341 335.22 335.174 327.204C336.257 326.409 335.174 324.531 334.091 325.326C323.041 333.487 312.857 342.659 303.685 352.842C302.674 353.854 304.191 355.37 305.202 354.359Z" fill="#161616"/>
<path d="M314.302 366.492C326.074 353.276 339.002 341.07 353.013 330.164C354.097 329.298 352.58 327.781 351.497 328.648C337.558 339.553 324.558 351.687 312.785 364.976C311.847 365.987 313.435 367.503 314.302 366.492Z" fill="#161616"/>
<path d="M329.757 381.154C333.874 374.509 339.363 368.876 344.779 363.243C350.701 357.248 356.624 351.181 362.546 345.187C363.557 344.176 361.968 342.659 361.029 343.67C354.818 350.026 348.607 356.309 342.396 362.665C337.051 368.082 331.924 373.643 327.879 380.07C327.157 381.226 329.035 382.309 329.757 381.154Z" fill="#161616"/>
<path d="M311.052 443.986C312.352 449.909 314.518 455.47 317.479 460.67C318.129 461.898 320.007 460.814 319.357 459.586C316.468 454.459 314.374 449.114 313.146 443.409C312.857 442.036 310.763 442.614 311.052 443.986Z" fill="#161616"/>
<path d="M312.785 445.287C320.007 440.953 327.807 438.281 336.113 437.126C335.679 436.909 335.246 436.62 334.813 436.403C336.257 441.098 337.629 445.72 339.074 450.414C339.507 451.714 341.602 451.209 341.168 449.837C339.724 445.142 338.352 440.52 336.907 435.826C336.69 435.176 336.185 434.959 335.607 435.103C327.085 436.259 319.14 439.076 311.774 443.481C310.474 444.131 311.557 446.009 312.785 445.287Z" fill="#161616"/>
<path d="M318.852 461.537C325.713 458.721 332.429 455.543 339.074 452.148C340.302 451.498 339.218 449.621 337.99 450.271C331.563 453.593 324.99 456.626 318.274 459.443C316.974 460.021 317.552 462.115 318.852 461.537Z" fill="#161616"/>
<path d="M374.102 428.964C382.046 424.703 390.496 421.742 399.307 419.936C400.68 419.647 400.102 417.553 398.73 417.842C389.702 419.647 381.107 422.753 373.018 427.086C371.718 427.736 372.874 429.614 374.102 428.964Z" fill="#161616"/>
<path d="M376.701 435.176C381.54 433.081 386.379 430.987 391.146 428.892C392.446 428.314 391.29 426.437 390.062 427.014C385.224 429.109 380.385 431.203 375.618 433.298C374.318 433.876 375.474 435.681 376.701 435.176Z" fill="#161616"/>
<path d="M220.051 252.02C237.24 246.315 254.429 239.381 272.268 235.915C273.64 235.626 273.062 233.531 271.69 233.82C253.923 237.359 236.662 244.22 219.473 249.926C218.173 250.359 218.751 252.454 220.051 252.02Z" fill="#161616"/>
<path d="M219.762 261.336C236.229 253.753 253.273 247.614 270.751 242.992C272.123 242.63 271.546 240.536 270.173 240.897C252.479 245.592 235.29 251.803 218.679 259.458C217.451 260.036 218.534 261.914 219.762 261.336Z" fill="#161616"/>
<path d="M218.463 270.725C225.685 267.764 232.763 264.586 239.768 261.192C240.996 260.614 239.913 258.736 238.685 259.314C231.824 262.636 224.891 265.742 217.885 268.631C216.657 269.136 217.163 271.231 218.463 270.725Z" fill="#161616"/>
<path d="M222.435 278.525C237.674 270.797 253.274 263.72 269.163 257.436C270.463 256.931 269.885 254.836 268.585 255.342C252.479 261.697 236.735 268.847 221.351 276.647C220.051 277.297 221.207 279.175 222.435 278.525Z" fill="#161616"/>
<path d="M179.174 124.403C199.685 114.436 218.752 101.87 236.085 87.1362C237.169 86.1973 235.58 84.6806 234.569 85.6195C217.38 100.281 198.385 112.631 178.091 122.597C176.791 123.175 177.874 125.053 179.174 124.403Z" fill="#161616"/>
<path d="M183.579 133.791C192.173 128.808 200.406 123.319 208.351 117.325C209.434 116.53 208.351 114.58 207.267 115.447C199.323 121.441 191.09 126.93 182.495 131.914C181.267 132.636 182.351 134.514 183.579 133.791Z" fill="#161616"/>
<path d="M189.069 140.364C207.558 130.47 225.324 119.492 242.441 107.359C243.597 106.564 242.513 104.687 241.358 105.481C224.313 117.614 206.474 128.592 187.985 138.487C186.758 139.137 187.841 141.014 189.069 140.364Z" fill="#161616"/>
<path d="M193.691 151.559C214.13 142.314 233.63 131.192 251.974 118.192C253.13 117.397 252.046 115.52 250.891 116.314C232.619 129.314 213.118 140.436 192.607 149.681C191.307 150.259 192.391 152.064 193.691 151.559Z" fill="#161616"/>
<path opacity="0.13" d="M294.151 331.536C301.879 329.803 309.607 328.07 317.335 326.336C328.313 349.447 339.29 372.558 350.268 395.597C361.246 381.37 372.224 367.214 383.201 352.986C367.024 335.581 350.846 318.103 334.74 300.697C321.163 311.025 307.657 321.281 294.151 331.536Z" fill="#3D3D3D"/>
<path opacity="0.21" d="M237.385 239.381C233.341 257.942 229.296 276.575 225.252 295.136C245.908 285.242 266.563 275.275 287.291 265.381C284.258 252.236 281.296 239.019 278.263 225.875C264.613 230.425 250.963 234.903 237.385 239.381Z" fill="#3D3D3D"/>
<path opacity="0.08" d="M330.552 399.787C334.596 409.609 338.641 419.431 342.685 429.254C349.402 430.77 356.046 432.287 362.763 433.731C370.057 438.787 377.28 443.915 384.574 448.97C395.624 445.143 406.746 441.315 417.796 437.559C409.346 418.42 400.969 399.209 392.519 380.07C381.468 383.393 370.346 386.787 359.296 390.109C353.518 399.354 347.741 408.598 341.963 417.843C338.135 411.776 334.38 405.781 330.552 399.787Z" fill="#3D3D3D"/>
<path opacity="0.15" d="M75.6071 143.614C72.1404 155.675 68.746 167.809 65.2793 179.87C88.3182 174.525 111.357 169.181 134.396 163.836C133.602 149.97 132.879 136.103 132.085 122.236C113.235 129.386 94.3849 136.536 75.6071 143.614Z" fill="#3D3D3D"/>
<path opacity="0.11" d="M202.718 102.375C205.39 141.375 207.412 160.803 208.857 160.803C209.29 160.803 209.651 158.853 210.012 155.097C228.934 145.564 247.929 136.031 266.851 126.497C257.318 108.658 247.785 90.8918 238.251 73.0529C226.334 82.8029 214.49 92.6251 202.718 102.375Z" fill="#3D3D3D"/>
<path d="M575.891 232.737C585.641 231.437 597.486 259.748 602.541 276.648C611.063 305.248 608.03 330.309 605.141 353.565C602.036 378.337 600.519 390.759 594.597 403.759C575.458 445.792 527.358 461.898 508.508 467.098C503.38 470.854 494.208 476.848 481.569 480.748C454.774 488.981 419.602 485.443 414.763 471.648C413.174 467.026 414.691 460.67 418.374 457.709C424.513 452.798 433.685 459.804 449.141 455.109C449.935 454.892 456.797 452.726 456.58 451.209C456.435 450.27 453.908 449.981 450.73 449.62C436.502 447.959 432.241 448.248 431.952 447.237C431.519 445.504 442.424 439.726 456.508 436.259C467.485 433.587 482.219 431.276 500.419 432.07C518.185 415.748 535.952 399.353 553.719 383.031C553.574 343.165 556.752 310.303 560.002 286.181C566.791 237.214 572.641 233.17 575.891 232.737Z" fill="white" stroke="#161616" stroke-width="3"/>
<path d="M413.68 471.07C416.425 474.031 421.48 474.898 425.164 475.981C430.58 477.498 436.141 478.654 441.775 479.376C443.147 479.593 443.725 477.498 442.352 477.281C437.658 476.631 432.964 475.765 428.341 474.537C424.369 473.526 418.014 472.659 415.197 469.481C414.258 468.543 412.741 470.059 413.68 471.07Z" fill="#161616"/>
<path d="M414.908 464.498C423.936 470.059 434.047 473.165 444.663 473.67C446.036 473.743 446.036 471.576 444.663 471.504C434.408 471.07 424.73 468.037 415.991 462.62C414.836 461.898 413.68 463.776 414.908 464.498Z" fill="#161616"/>
<path d="M418.735 459.442C428.847 464.57 439.824 467.242 451.163 467.242C452.535 467.242 452.535 465.076 451.163 465.076C440.185 465.076 429.569 462.548 419.819 457.564C418.591 456.914 417.508 458.792 418.735 459.442Z" fill="#161616"/>
<path opacity="0.15" d="M572.135 235.915C578.635 250.07 587.23 273.037 589.758 302.431C591.635 324.459 594.741 362.015 572.135 399.426C549.891 436.187 516.163 450.776 503.669 456.121C491.102 461.537 470.013 470.348 442.641 467.459C431.591 466.304 422.635 463.559 416.424 461.176C415.052 464.209 413.752 468.543 415.269 472.515C420.18 485.443 450.802 485.226 467.269 482.698C476.441 481.326 491.68 477.643 508.724 466.304C529.235 460.237 580.224 442.182 595.535 401.376C600.013 389.459 602.685 372.343 604.13 363.026C606.152 349.882 609.113 330.165 607.235 304.743C607.235 304.743 604.491 267.981 584.124 237.865C583.185 236.42 581.019 233.387 577.841 233.17C575.385 233.026 573.219 234.831 572.135 235.915Z" fill="#3D3D3D"/>
<path opacity="0.09" d="M605.791 332.548C603.624 332.187 599.002 356.165 594.091 371.259C585.569 397.403 564.769 431.998 509.591 466.304C522.085 463.487 539.852 457.565 557.691 444.781C566.719 438.281 581.958 427.376 592.502 407.226C599.796 393.287 601.746 380.792 604.202 364.615C606.441 350.387 607.597 332.837 605.791 332.548Z" fill="#3D3D3D"/>
<path d="M406.385 100.064C406.024 116.747 405.663 133.358 405.302 150.042C400.246 171.131 408.118 192.508 424.513 203.342C442.352 215.114 462.285 209.192 465.174 208.253C465.318 212.297 465.174 217.353 464.091 223.058C463.152 228.331 461.635 232.736 460.263 236.203C469.074 244.436 477.235 246.531 481.713 247.181C502.946 250.286 527.213 233.242 539.924 203.775C536.096 199.731 530.968 193.664 526.202 185.647C523.457 181.097 517.102 169.614 513.563 153.219C509.952 136.464 513.491 134.225 510.818 121.947C507.785 107.936 499.046 92.0471 487.202 84.0304C467.268 70.8137 433.757 76.6637 406.385 100.064Z" fill="white" stroke="#161616" stroke-width="3"/>
<path d="M403.424 156.614C398.369 159.358 398.008 167.447 397.502 178.136C396.996 188.103 396.491 200.019 404.002 211.936C409.708 221.036 417.435 225.514 420.613 227.319C437.08 236.708 453.835 233.819 459.108 232.664C455.785 231.292 452.391 229.919 449.069 228.547C453.185 228.403 460.119 227.608 467.413 223.78C474.924 219.88 479.185 214.68 482.797 210.13C487.058 204.786 493.774 194.892 497.602 179.942C495.724 176.692 488.502 163.547 492.258 147.369C494.352 138.414 498.902 132.275 501.719 129.025C506.124 129.314 508.508 131.119 509.447 131.986C514.285 136.391 514.863 145.419 510.024 153.941C512.119 152.425 517.102 148.236 519.485 140.869C522.013 133.214 519.991 126.786 518.908 123.103C517.535 118.697 515.513 112.125 509.447 108.875C507.713 107.936 504.969 106.78 501.719 107.069C491.319 108.08 489.152 124.764 477.019 140.147C467.919 151.63 449.213 167.375 430.796 165.28C416.93 163.692 410.285 152.858 403.424 156.614Z" fill="#161616" stroke="#161616" stroke-width="3"/>
<path d="M428.846 127.798C429.713 139.209 429.858 150.692 429.208 162.103C429.135 163.114 430.435 163.475 431.085 162.898C434.696 159.72 438.308 156.542 441.847 153.364C442.858 152.425 441.341 150.909 440.33 151.848C436.719 155.025 433.108 158.203 429.569 161.381C430.219 161.67 430.796 161.886 431.446 162.175C432.096 150.764 431.952 139.281 431.085 127.87C430.941 126.425 428.774 126.425 428.846 127.798Z" fill="#161616"/>
<path d="M413.246 138.919C412.958 138.125 412.019 134.947 413.752 134.947C414.763 134.947 414.763 136.68 414.763 137.33C414.763 137.98 414.763 139.064 414.258 139.642C413.752 140.292 413.03 139.786 412.813 139.064C412.596 138.342 412.741 137.547 412.813 136.825C413.03 135.453 410.935 134.875 410.719 136.247C410.358 138.558 410.646 142.314 413.896 142.097C416.208 141.953 416.858 139.208 416.858 137.258C416.858 135.236 415.991 132.419 413.391 132.708C409.996 133.142 410.213 137.042 411.008 139.425C411.585 140.797 413.68 140.219 413.246 138.919Z" fill="#161616"/>
<path d="M414.763 138.269C414.257 137.692 414.257 136.68 414.763 136.03C414.185 135.958 413.607 135.886 413.029 135.814C413.607 136.608 413.752 137.764 413.102 138.558C413.679 138.63 414.257 138.703 414.835 138.775C414.618 138.414 413.102 136.319 414.329 136.247C414.185 136.247 414.329 136.03 414.257 136.392C414.257 136.68 414.329 137.042 414.329 137.403C414.329 137.619 414.185 138.558 413.824 138.342C412.668 137.547 411.585 139.425 412.74 140.219C414.04 141.086 415.702 140.219 416.207 138.919C416.713 137.692 416.713 135.236 415.413 134.442C414.257 133.719 412.668 134.369 412.018 135.453C411.151 136.969 412.018 138.63 412.885 139.93C413.246 140.436 414.113 140.725 414.618 140.147C415.846 138.63 416.063 136.464 414.907 134.803C414.546 134.297 413.679 134.008 413.174 134.586C411.874 136.175 411.874 138.269 413.174 139.858C414.113 140.797 415.629 139.28 414.763 138.269Z" fill="#161616"/>
<path d="M455.28 135.959C454.558 135.309 453.691 133.792 454.991 133.142C456.291 132.492 456.508 134.225 456.508 135.092C456.508 135.597 456.652 137.62 455.786 137.62C454.991 137.62 454.558 135.959 454.341 135.453C453.98 134.153 451.886 134.659 452.247 136.031C452.825 137.909 454.269 140.436 456.58 139.642C458.819 138.92 458.891 135.597 458.53 133.72C458.097 131.481 455.858 130.036 453.763 131.336C451.452 132.781 451.958 135.814 453.763 137.475C454.775 138.414 456.291 136.897 455.28 135.959Z" fill="#161616"/>
<path d="M456.796 136.536C456.507 135.597 456.435 134.658 456.652 133.719C456.146 133.936 455.568 134.153 455.063 134.369C455.568 134.658 455.568 135.597 455.063 135.886C455.568 136.103 456.146 136.319 456.652 136.536C456.218 135.597 455.857 134.586 455.424 133.647C455.207 133.142 454.702 132.708 454.124 132.925C453.618 133.069 453.113 133.719 453.402 134.225C453.835 135.164 454.196 136.175 454.63 137.114C454.918 137.764 455.568 138.197 456.218 137.764C458.096 136.608 458.096 133.647 456.218 132.492C455.641 132.13 454.774 132.419 454.63 133.142C454.341 134.514 454.413 135.814 454.774 137.114C455.135 138.414 457.157 137.836 456.796 136.536Z" fill="#161616"/>
<path d="M410.141 125.775C412.453 121.514 418.158 120.936 421.047 124.981C421.841 126.136 423.719 125.053 422.925 123.897C419.097 118.625 411.441 118.842 408.264 124.692C407.614 125.92 409.491 127.003 410.141 125.775Z" fill="#161616"/>
<path d="M448.058 125.558C451.163 120.43 458.458 120.864 460.697 126.497C461.202 127.797 463.297 127.219 462.791 125.919C459.83 118.553 450.297 117.614 446.18 124.475C445.458 125.63 447.336 126.714 448.058 125.558Z" fill="#161616"/>
<path d="M379.591 106.492C417.146 108.658 454.63 111.692 492.041 115.592C496.23 116.025 496.158 109.525 492.041 109.092C454.63 105.119 417.146 102.086 379.591 99.9915C375.402 99.7748 375.402 106.275 379.591 106.492Z" fill="#161616"/>
<path d="M403.93 101.725C404.507 96.1637 406.891 81.8636 418.374 70.1636C433.902 54.3469 460.985 48.858 482.363 61.4969C499.119 71.4636 508.869 90.4581 507.713 110.608C473.119 107.719 438.524 104.686 403.93 101.725Z" fill="#4318FF"/>
<path opacity="0.11" d="M508.941 153.147C508.869 153.725 507.93 158.564 503.596 160.73C501.358 161.814 499.263 161.814 498.252 161.669C502.658 167.303 520.713 191.714 515.008 221.614C513.491 229.414 510.674 235.986 507.785 241.186C512.552 238.225 518.763 233.675 524.83 226.958C532.341 218.653 536.602 210.347 539.058 204.569C534.508 198.864 529.524 191.858 524.83 183.408C518.691 172.358 514.791 161.958 512.191 153.436C511.035 153.364 510.024 153.219 508.941 153.147Z" fill="#3D3D3D"/>
<path opacity="0.12" d="M428.775 128.23C426.175 138.197 423.502 148.236 420.902 158.203C423.863 159.358 426.825 160.514 429.713 161.669C429.425 150.475 429.136 139.353 428.775 128.23Z" fill="#3D3D3D"/>
<path opacity="0.69" d="M451.38 57.5247C443.941 64.3136 448.057 84.8247 461.13 106.564C476.585 107.936 492.041 109.38 507.496 110.753C508.002 104.397 508.074 92.047 500.924 80.2025C488.719 60.0525 460.552 49.2191 451.38 57.5247Z" fill="#3A1DA3"/>
</svg>
